<mxfile host="app.diagrams.net" modified="2023-10-24T14:10:16.769Z" agent="Mozilla/5.0 (Windows NT 10.0; Win64; x64) AppleWebKit/537.36 (KHTML, like Gecko) Chrome/118.0.0.0 Safari/537.36 Edg/118.0.2088.61" etag="QqtYAeNuZVNhZUQmCOB8" version="22.0.6" type="github">
  <diagram name="Page-1" id="2YBvvXClWsGukQMizWep">
    <mxGraphModel dx="1665" dy="449" grid="1" gridSize="10" guides="1" tooltips="1" connect="1" arrows="1" fold="1" page="1" pageScale="1" pageWidth="850" pageHeight="1100" math="0" shadow="0">
      <root>
        <mxCell id="0" />
        <mxCell id="1" parent="0" />
        <mxCell id="erNaiqJxR4J6plPJgtmA-1" value="Actor" style="shape=umlActor;verticalLabelPosition=bottom;verticalAlign=top;html=1;outlineConnect=0;" parent="1" vertex="1">
          <mxGeometry x="-740" y="40" width="20" height="40" as="geometry" />
        </mxCell>
        <mxCell id="erNaiqJxR4J6plPJgtmA-4" value="" style="endArrow=none;html=1;rounded=0;" parent="1" edge="1">
          <mxGeometry width="50" height="50" relative="1" as="geometry">
            <mxPoint x="-730" y="710" as="sourcePoint" />
            <mxPoint x="-730" y="100" as="targetPoint" />
            <Array as="points" />
          </mxGeometry>
        </mxCell>
        <mxCell id="erNaiqJxR4J6plPJgtmA-5" value="" style="endArrow=none;html=1;rounded=0;" parent="1" source="327TcyxCbWPy4A6giVXe-14" edge="1">
          <mxGeometry width="50" height="50" relative="1" as="geometry">
            <mxPoint x="-410" y="550" as="sourcePoint" />
            <mxPoint x="-410" y="90" as="targetPoint" />
            <Array as="points" />
          </mxGeometry>
        </mxCell>
        <mxCell id="erNaiqJxR4J6plPJgtmA-7" value="ScreenMenu" style="rounded=0;whiteSpace=wrap;html=1;" parent="1" vertex="1">
          <mxGeometry x="-470" y="50" width="120" height="40" as="geometry" />
        </mxCell>
        <mxCell id="erNaiqJxR4J6plPJgtmA-9" value="" style="endArrow=classic;html=1;rounded=0;exitX=1;exitY=0.159;exitDx=0;exitDy=0;exitPerimeter=0;entryX=0.1;entryY=0.084;entryDx=0;entryDy=0;entryPerimeter=0;" parent="1" edge="1" target="327TcyxCbWPy4A6giVXe-14" source="stqG8N-yaftMAbIO_Vs1-2">
          <mxGeometry width="50" height="50" relative="1" as="geometry">
            <mxPoint x="-770" y="189.5" as="sourcePoint" />
            <mxPoint x="-420" y="190" as="targetPoint" />
          </mxGeometry>
        </mxCell>
        <mxCell id="erNaiqJxR4J6plPJgtmA-10" value="" style="endArrow=classic;html=1;rounded=0;entryX=1.4;entryY=0.025;entryDx=0;entryDy=0;entryPerimeter=0;" parent="1" edge="1" target="stqG8N-yaftMAbIO_Vs1-2">
          <mxGeometry width="50" height="50" relative="1" as="geometry">
            <mxPoint x="-390" y="135" as="sourcePoint" />
            <mxPoint x="-770" y="135" as="targetPoint" />
          </mxGeometry>
        </mxCell>
        <mxCell id="erNaiqJxR4J6plPJgtmA-11" value="&lt;div align=&quot;center&quot;&gt;Affiche le menu&lt;br&gt;&lt;/div&gt;" style="text;html=1;strokeColor=none;fillColor=none;align=center;verticalAlign=middle;whiteSpace=wrap;rounded=0;" parent="1" vertex="1">
          <mxGeometry x="-710" y="95" width="150" height="30" as="geometry" />
        </mxCell>
        <mxCell id="327TcyxCbWPy4A6giVXe-1" value="&lt;div align=&quot;center&quot;&gt;clique PLAY&lt;/div&gt;" style="text;html=1;strokeColor=none;fillColor=none;align=center;verticalAlign=middle;whiteSpace=wrap;rounded=0;" parent="1" vertex="1">
          <mxGeometry x="-690" y="160" width="150" height="30" as="geometry" />
        </mxCell>
        <mxCell id="ElPt6Nl_ZY06E14EZ_ao-4" value="" style="endArrow=none;html=1;rounded=0;" parent="1" target="327TcyxCbWPy4A6giVXe-14" edge="1">
          <mxGeometry width="50" height="50" relative="1" as="geometry">
            <mxPoint x="-410" y="550" as="sourcePoint" />
            <mxPoint x="-410" y="90" as="targetPoint" />
            <Array as="points" />
          </mxGeometry>
        </mxCell>
        <mxCell id="327TcyxCbWPy4A6giVXe-14" value="" style="rounded=0;whiteSpace=wrap;html=1;" parent="1" vertex="1">
          <mxGeometry x="-415" y="170" width="10" height="140" as="geometry" />
        </mxCell>
        <mxCell id="ElPt6Nl_ZY06E14EZ_ao-7" value="&lt;div align=&quot;center&quot;&gt;selection de partie&lt;/div&gt;" style="text;html=1;strokeColor=none;fillColor=none;align=center;verticalAlign=middle;whiteSpace=wrap;rounded=0;" parent="1" vertex="1">
          <mxGeometry x="-720" y="200" width="160" height="30" as="geometry" />
        </mxCell>
        <mxCell id="ElPt6Nl_ZY06E14EZ_ao-15" value="" style="endArrow=classic;html=1;rounded=0;entryX=1;entryY=0.25;entryDx=0;entryDy=0;exitX=0;exitY=0.25;exitDx=0;exitDy=0;" parent="1" edge="1" target="stqG8N-yaftMAbIO_Vs1-2" source="327TcyxCbWPy4A6giVXe-14">
          <mxGeometry width="50" height="50" relative="1" as="geometry">
            <mxPoint x="-410" y="220" as="sourcePoint" />
            <mxPoint x="-760" y="230" as="targetPoint" />
          </mxGeometry>
        </mxCell>
        <mxCell id="stqG8N-yaftMAbIO_Vs1-3" value="" style="endArrow=classic;html=1;rounded=0;" edge="1" parent="1" target="stqG8N-yaftMAbIO_Vs1-2">
          <mxGeometry width="50" height="50" relative="1" as="geometry">
            <mxPoint x="-730" y="189.5" as="sourcePoint" />
            <mxPoint x="-450" y="190" as="targetPoint" />
          </mxGeometry>
        </mxCell>
        <mxCell id="stqG8N-yaftMAbIO_Vs1-2" value="" style="rounded=0;whiteSpace=wrap;html=1;" vertex="1" parent="1">
          <mxGeometry x="-735" y="125" width="10" height="395" as="geometry" />
        </mxCell>
        <mxCell id="stqG8N-yaftMAbIO_Vs1-19" value="" style="endArrow=none;html=1;rounded=0;" edge="1" parent="1" source="stqG8N-yaftMAbIO_Vs1-22">
          <mxGeometry width="50" height="50" relative="1" as="geometry">
            <mxPoint x="-230" y="550" as="sourcePoint" />
            <mxPoint x="-230" y="90" as="targetPoint" />
            <Array as="points" />
          </mxGeometry>
        </mxCell>
        <mxCell id="stqG8N-yaftMAbIO_Vs1-20" value="SelectTamagotchi" style="rounded=0;whiteSpace=wrap;html=1;" vertex="1" parent="1">
          <mxGeometry x="-290" y="50" width="120" height="40" as="geometry" />
        </mxCell>
        <mxCell id="stqG8N-yaftMAbIO_Vs1-21" value="" style="endArrow=none;html=1;rounded=0;" edge="1" parent="1" target="stqG8N-yaftMAbIO_Vs1-22">
          <mxGeometry width="50" height="50" relative="1" as="geometry">
            <mxPoint x="-230" y="550" as="sourcePoint" />
            <mxPoint x="-230" y="90" as="targetPoint" />
            <Array as="points" />
          </mxGeometry>
        </mxCell>
        <mxCell id="stqG8N-yaftMAbIO_Vs1-22" value="" style="rounded=0;whiteSpace=wrap;html=1;" vertex="1" parent="1">
          <mxGeometry x="-235" y="271" width="10" height="60" as="geometry" />
        </mxCell>
        <mxCell id="stqG8N-yaftMAbIO_Vs1-33" value="" style="endArrow=none;html=1;rounded=0;" edge="1" parent="1" source="stqG8N-yaftMAbIO_Vs1-36">
          <mxGeometry width="50" height="50" relative="1" as="geometry">
            <mxPoint x="-80" y="550" as="sourcePoint" />
            <mxPoint x="-80" y="90" as="targetPoint" />
            <Array as="points" />
          </mxGeometry>
        </mxCell>
        <mxCell id="stqG8N-yaftMAbIO_Vs1-34" value="Controleur" style="rounded=0;whiteSpace=wrap;html=1;" vertex="1" parent="1">
          <mxGeometry x="-140" y="50" width="120" height="40" as="geometry" />
        </mxCell>
        <mxCell id="stqG8N-yaftMAbIO_Vs1-35" value="" style="endArrow=none;html=1;rounded=0;" edge="1" parent="1" target="stqG8N-yaftMAbIO_Vs1-36">
          <mxGeometry width="50" height="50" relative="1" as="geometry">
            <mxPoint x="-80" y="550" as="sourcePoint" />
            <mxPoint x="-80" y="90" as="targetPoint" />
            <Array as="points" />
          </mxGeometry>
        </mxCell>
        <mxCell id="stqG8N-yaftMAbIO_Vs1-36" value="" style="rounded=0;whiteSpace=wrap;html=1;" vertex="1" parent="1">
          <mxGeometry x="-85" y="360" width="10" height="50" as="geometry" />
        </mxCell>
        <mxCell id="stqG8N-yaftMAbIO_Vs1-46" style="edgeStyle=orthogonalEdgeStyle;rounded=0;orthogonalLoop=1;jettySize=auto;html=1;exitX=0.5;exitY=1;exitDx=0;exitDy=0;" edge="1" parent="1" source="327TcyxCbWPy4A6giVXe-14" target="327TcyxCbWPy4A6giVXe-14">
          <mxGeometry relative="1" as="geometry" />
        </mxCell>
      </root>
    </mxGraphModel>
  </diagram>
</mxfile>
